<svg width="32" height="33" viewBox="0 0 32 33" fill="none" xmlns="http://www.w3.org/2000/svg">
<g clip-path="url(#clip0)">
<path d="M1.03223 1.53226H23.2424V5.66129H1.03223V1.53226Z" fill="#E85763"/>
<path d="M30.9674 19.0733H8.75718V27.6051C8.75668 29.7382 7.0276 31.4672 4.89453 31.4677H27.1047C29.2378 31.4672 30.9669 29.7382 30.9674 27.6051V19.0733Z" fill="#E85763"/>
<path d="M6.22266 8.97379H13.7065V11.0383H6.22266V8.97379Z" fill="#333333"/>
<path d="M6.22266 13.3191H9.96459V15.3836H6.22266V13.3191Z" fill="#333333"/>
<path d="M24.2747 18.0411V4.62903H2.06452V2.56452H24.2747V0.5H0V6.69355H22.2102V20.1056H29.9355V27.6051C29.9337 29.1676 28.6676 30.4337 27.1051 30.4355H8.88558C9.47429 29.6091 9.79007 28.6195 9.78881 27.6051V20.1056H20.1457V18.0411H7.7253V27.6051C7.7253 29.1683 6.45817 30.4355 4.89491 30.4355C3.33165 30.4355 2.06452 29.1683 2.06452 27.6051V8.75806H0V27.6051C0.00453629 30.3064 2.19304 32.4952 4.8944 32.5H27.1056C29.807 32.4952 31.9955 30.3064 32 27.6051V18.0411H24.2747Z" fill="#333333"/>
</g>
<defs>
<clipPath id="clip0">
<rect width="32" height="32" fill="white" transform="translate(0 0.5)"/>
</clipPath>
</defs>
</svg>
