<svg width="32" height="33" viewBox="0 0 32 33" fill="none" xmlns="http://www.w3.org/2000/svg">
<g clip-path="url(#clip0)">
<path d="M21.1165 3.89972V6.26716H10.8836V3.89972H5.93555V31.4678H26.0646V3.89972H21.1165Z" fill="#E85763"/>
<path d="M21.1636 13.3559L19.7039 11.8962L14.504 17.0955L12.2956 14.8871L10.8359 16.3468L14.504 20.0154L21.1636 13.3559Z" fill="#333333"/>
<path d="M14.504 26.5912L21.1636 19.9317L19.7039 18.472L14.504 23.6721L12.2956 21.4637L10.8359 22.9232L14.504 26.5912Z" fill="#333333"/>
<path d="M22.1488 2.86744V0.5H9.8514V7.2994H22.1488V4.93196H25.0324V30.4355H6.96784V4.93196H7.78689V2.86744H4.90332V32.5H27.0969V2.86744H22.1488ZM20.0843 5.23488H11.9159V2.56452H20.0843V5.23488Z" fill="#333333"/>
</g>
<defs>
<clipPath id="clip0">
<rect width="32" height="32" fill="white" transform="translate(0 0.5)"/>
</clipPath>
</defs>
</svg>
