<svg width="32" height="27" viewBox="0 0 32 27" fill="none" xmlns="http://www.w3.org/2000/svg">
<path d="M1.5 5V26H30.5V5H1.5ZM9.5 22H5.5V18H9.5V22ZM18 22H14V18H18V22ZM18 13H14V9H18V13ZM26.5 13H22.5V9H26.5V13Z" fill="#E85763"/>
<path d="M31.5 6V0H0.5V2H29.5V4H0.5V27H31.5V8H29.5V25H2.5V6H31.5Z" fill="#333333"/>
<path d="M19 23H13V17H19V23ZM15 21H17V19H15V21ZM10.5 23H4.5V17H10.5V23ZM6.5 21H8.5V19H6.5V21ZM27.5 14H21.5V8H27.5V14ZM23.5 12H25.5V10H23.5V12ZM19 14H13V8H19V14ZM15 12H17V10H15V12Z" fill="#333333"/>
</svg>
