<svg width="32" height="33" viewBox="0 0 32 33" fill="none" xmlns="http://www.w3.org/2000/svg">
<path d="M20 1.5C20 2.56087 19.5786 3.57828 18.8284 4.32843C18.0783 5.07857 17.0609 5.5 16 5.5C14.9391 5.5 13.9217 5.07857 13.1716 4.32843C12.4214 3.57828 12 2.56087 12 1.5H1V9.5H7V20.5H25V9.5H31V1.5H20Z" fill="#E85763"/>
<path d="M0 0.5V10.5H8V8.5H2V2.5H11.1C11.3295 3.63029 11.9427 4.64647 12.8357 5.37638C13.7288 6.10628 14.8466 6.50501 16 6.50501C17.1534 6.50501 18.2712 6.10628 19.1643 5.37638C20.0573 4.64647 20.6705 3.63029 20.9 2.5H30V8.5H24V19.5H8V12.5H6V32.5H26V10.5H32V0.5H0ZM16 4.5C15.3802 4.49929 14.7758 4.30663 14.27 3.9485C13.7641 3.59037 13.3816 3.08435 13.175 2.5H18.825C18.6184 3.08435 18.2359 3.59037 17.73 3.9485C17.2242 4.30663 16.6198 4.49929 16 4.5ZM24 30.5H17V24.5H15V30.5H8V21.5H24V30.5Z" fill="#333333"/>
</svg>
