<svg width="30" height="31" viewBox="0 0 30 31" fill="none" xmlns="http://www.w3.org/2000/svg">
<path d="M15.778 1H14.222L1 9.5V10.143L14.222 18.643H15.778L29 10.143V9.5L15.778 1Z" fill="#E85763"/>
<path d="M16.0715 0H13.9285L0 8.954V10.6885L13.9285 19.643H16.0715L21.25 16.314V19.9885L15.45 23.8565H14.555L3.5715 16.5365V15.3625L1.5715 14.0765V17.6065L13.95 25.8565H16.05L21.25 22.392V31H23.25V21.059L28.4285 17.6065V11.7L30 10.6885V8.954L16.0715 0ZM26.4285 16.5365L23.25 18.6555V15.028L26.4285 12.9845V16.5365ZM22.25 13.2935L15.541 8.9805L14.459 10.6625L20.4 14.482L15.4835 17.643H14.516L2.35 9.8215L14.516 2H15.484L27.65 9.8215L22.25 13.2935Z" fill="#333333"/>
</svg>
