<svg xmlns="http://www.w3.org/2000/svg" viewBox="0 0 385 272.86"><defs><style>.cls-1{fill:#333;}</style></defs><g id="Слой_2" data-name="Слой 2"><g id="Слой_1-2" data-name="Слой 1"><g id="black"><path class="cls-1" d="M343,65.72a21,21,0,1,0-23,23A21.05,21.05,0,0,0,343,65.72Zm-9,3.7A12,12,0,1,1,320.51,56,12,12,0,0,1,334,69.42Z"/><path class="cls-1" d="M209,58.72a21,21,0,1,0-23,23A21.05,21.05,0,0,0,209,58.72Zm-9,3.7A12,12,0,1,1,186.51,49,12,12,0,0,1,200,62.42Z"/><path class="cls-1" d="M188.85,108.86H282.7l6.26-6.25,2.74-2.75H188.79c-21.11,0-38.93-16.48-39.69-37.57a38.73,38.73,0,0,1,7.29-24.13h0l-7.2-5.44a47.68,47.68,0,0,0-9.11,27.4C139.67,86.92,162,108.86,188.85,108.86Z"/><path class="cls-1" d="M229.05,85.86A48,48,0,0,0,227,32.71l-7.2,5.44h0A38.88,38.88,0,0,1,218,85.86Z"/><path class="cls-1" d="M363.44,92.22l-8-4.19a38.94,38.94,0,0,1-52.79,13.63l-6.56,6.56a48,48,0,0,0,67.36-16Z"/><path class="cls-1" d="M243.71,85.86h9.76c.27-.71.53-1.43.78-2.15a70,70,0,0,0-14.61-70.18l-6.38,6.38a61,61,0,0,1,10.45,66Z"/><path class="cls-1" d="M129.17,98.69a69.94,69.94,0,0,0,58.9,32.17h72.64l9-9H189c-33.78,0-61.82-27.07-61.9-60.85a60.8,60.8,0,0,1,15.81-41.1l-6.38-6.38a69.94,69.94,0,0,0-7.33,85.16Z"/><path class="cls-1" d="M323.07,140.86A70,70,0,0,0,385,103.5l-8-4.18a61.1,61.1,0,0,1-49.21,32.36c-1.56.12-3.14.18-4.73.18a60.52,60.52,0,0,1-25.69-5.68c-1.75-.81-3.46-1.71-5.11-2.68a4.61,4.61,0,0,0-5.61.68l-3.9,3.9-53.41,53.4L210.7,154.86l-1.83-2.62-4-5.69a1.61,1.61,0,0,0-1.32-.69H170.38a1.61,1.61,0,0,0-1.14.47l-8.53,8.53-25.4,25.4,3.39,9.33,34.73-34.73h20.1l-49.46,49.46,3.39,9.33,54.95-55L222.88,188l5.25,7.49,9.55,13.63,1.92,2.74a4.84,4.84,0,0,0,7.4.66l2.38-2.38,45.24-45.23h60.5l-33.78,33.78,5.24,7.48,41.26-41.26.39-.39a5,5,0,0,0-3.57-8.61h-61l15.13-15.13C320.18,140.82,321.62,140.86,323.07,140.86Zm-78.93,61.75L234.59,189l56.06-56.07a69.52,69.52,0,0,0,17,6.24Z"/><path class="cls-1" d="M61.56,78.38a21.22,21.22,0,0,0-16-16,21,21,0,0,0-25,25,21.22,21.22,0,0,0,16,16A21,21,0,0,0,61.56,78.38ZM39.51,94.76A12,12,0,1,1,53,81.3,12,12,0,0,1,39.51,94.76Z"/><path class="cls-1" d="M85.83,99.74,18.39,167.18l6.36,6.36,70.66-70.66a92.22,92.22,0,0,0-1.6-9.16A90,90,0,0,0,5.07,23.87h0v9h1A81.12,81.12,0,0,1,85.83,99.74Z"/><path class="cls-1" d="M93.84,38.72A134.49,134.49,0,0,0,5.07,0V9A125.13,125.13,0,0,1,87.48,45.08Z"/><path class="cls-1" d="M134,213.86h-9.57l-5.87-16.11L114.29,186l-9.07-24.93L52.43,213.86H39.71l62.11-62.12-6-16.46-3.15,3.14L75.41,155.69,47.91,183.2,30.64,200.47,17.25,213.86H4.51l10.43-10.43,11-11.05,58.6-58.6,7.84-7.84,3.21-3.21a3.43,3.43,0,0,1,5.64,1.25l1.56,4.28,6,16.46h0l3.39,9.33h0l7,19.06h0l4.77,13.1Z"/><path class="cls-1" d="M150.47,228.2a2,2,0,0,0-1.89-1.34h-9.16a2,2,0,0,0-1.89,1.34l-15.07,43.33a1,1,0,0,0,1,1.33h6.17a2,2,0,0,0,1.89-1.34l2.66-7.66h19.74l2.66,7.66a2,2,0,0,0,1.89,1.34h6.17a1,1,0,0,0,.95-1.33Zm-13.56,27.66L144,235.48l7.09,20.38Z"/><path class="cls-1" d="M119,226.86h-7.5a2,2,0,0,0-1.74,1L99.66,245.39l-.16.28-.16-.28L89.23,227.86a2,2,0,0,0-1.74-1H80a1,1,0,0,0-.86,1.5L95,255.86v16a1,1,0,0,0,1,1h7a1,1,0,0,0,1-1v-16l15.87-27.5A1,1,0,0,0,119,226.86Z"/><path class="cls-1" d="M32,226.86H1a1,1,0,0,0-1,1v44a1,1,0,0,0,1,1H32a1,1,0,0,0,1-1v-6a1,1,0,0,0-1-1H9v-11H30a1,1,0,0,0,1-1v-6a1,1,0,0,0-1-1H9v-11H32a1,1,0,0,0,1-1v-6A1,1,0,0,0,32,226.86Z"/><path class="cls-1" d="M204,226.86H169a1,1,0,0,0-1,1v6a1,1,0,0,0,1,1h13v37a1,1,0,0,0,1,1h7a1,1,0,0,0,1-1v-37h13a1,1,0,0,0,1-1v-6A1,1,0,0,0,204,226.86Z"/><path class="cls-1" d="M244,226.86H209a1,1,0,0,0-1,1v6a1,1,0,0,0,1,1h13v37a1,1,0,0,0,1,1h7a1,1,0,0,0,1-1v-37h13a1,1,0,0,0,1-1v-6A1,1,0,0,0,244,226.86Z"/><path class="cls-1" d="M74,226.86H40a1,1,0,0,0-1,1v6a1,1,0,0,0,1,1H61.91l-22.82,30-.68.89A2,2,0,0,0,38,267v4.89a1,1,0,0,0,1,1H74a1,1,0,0,0,1-1v-6a1,1,0,0,0-1-1H51.09l22.82-30,.68-.89a2,2,0,0,0,.41-1.22v-4.89A1,1,0,0,0,74,226.86Z"/><path class="cls-1" d="M284,226.86H253a1,1,0,0,0-1,1v44a1,1,0,0,0,1,1h31a1,1,0,0,0,1-1v-6a1,1,0,0,0-1-1H261v-11h21a1,1,0,0,0,1-1v-6a1,1,0,0,0-1-1H261v-11h23a1,1,0,0,0,1-1v-6A1,1,0,0,0,284,226.86Z"/><path class="cls-1" d="M329,226.86h-7a1,1,0,0,0-1,1v30.21l-18.42-30.25a2,2,0,0,0-1.7-1H294a1,1,0,0,0-.77.37.94.94,0,0,0-.23.63v44a1,1,0,0,0,1,1h7a1,1,0,0,0,1-1V241.65l18.42,30.25a2,2,0,0,0,1.7,1H329a1,1,0,0,0,.77-.37.94.94,0,0,0,.23-.63v-44A1,1,0,0,0,329,226.86Z"/><path class="cls-1" d="M362,226.86H341a1,1,0,0,0-1,1v44a1,1,0,0,0,1,1h21a15,15,0,0,0,15-15v-16A15,15,0,0,0,362,226.86Zm6,31a6,6,0,0,1-6,6H349v-28h13a6,6,0,0,1,6,6Z"/></g></g></g></svg>