<svg xmlns="http://www.w3.org/2000/svg" width="22" height="12.175" viewBox="0 0 22 12.175"><defs><style>.a{fill:#ead7d7;}</style></defs><path class="a" d="M78.934,261.646a.348.348,0,0,0,.407-.025l.956-.842a.217.217,0,0,0,0-.339,10.99,10.99,0,0,0-16.86,4.172A10.512,10.512,0,0,0,62.5,268.8a.257.257,0,0,0,.259.259H64.02a.279.279,0,0,0,.274-.259,9.24,9.24,0,0,1,14.64-7.159Zm3.209.616a.207.207,0,0,0-.332-.008c-.3.339-.586.666-.88,1a.336.336,0,0,0-.018.4,9.135,9.135,0,0,1,1.773,5.15.269.269,0,0,0,.267.259h1.292a.251.251,0,0,0,.254-.259A10.891,10.891,0,0,0,82.142,262.262Zm-1.267-.6c-.045.035-.093.065-.136.1q-3.383,2.991-6.762,5.985a.64.64,0,0,1-.48.181,1.146,1.146,0,0,0-1.076,1.6,1.186,1.186,0,0,0,1.343.676,1.157,1.157,0,0,0,.885-1.129.632.632,0,0,1,.085-.377q2.354-2.686,4.725-5.356.728-.822,1.456-1.647Z" transform="translate(-62.498 -258.064)"/></svg>