<svg width="32" height="33" viewBox="0 0 32 33" fill="none" xmlns="http://www.w3.org/2000/svg">
<g clip-path="url(#clip0)">
<path d="M20.2098 7.75V10.315H16.1648V7.75H9.74976C8.1252 7.74896 6.53243 8.20021 5.14984 9.0532C3.76724 9.90619 2.64941 11.1273 1.92154 12.5796C1.19367 14.032 0.884503 15.6583 1.02866 17.2765C1.17283 18.8946 1.76462 20.4407 2.73778 21.7415C3.71093 23.0423 5.02701 24.0465 6.53863 24.6417C8.05024 25.2368 9.69769 25.3994 11.2965 25.1112C12.8953 24.823 14.3822 24.0954 15.5909 23.0099C16.7995 21.9243 17.6821 20.5238 18.1398 18.965L30.9998 12V7.75H20.2098ZM9.74976 20.545C8.94973 20.545 8.16767 20.3078 7.50247 19.8633C6.83728 19.4188 6.31882 18.7871 6.01266 18.048C5.70651 17.3088 5.6264 16.4955 5.78248 15.7109C5.93856 14.9262 6.3238 14.2055 6.88951 13.6398C7.45521 13.0741 8.17596 12.6888 8.96061 12.5327C9.74527 12.3766 10.5586 12.4568 11.2977 12.7629C12.0368 13.0691 12.6686 13.5875 13.1131 14.2527C13.5575 14.9179 13.7948 15.7 13.7948 16.5C13.7934 17.5724 13.3668 18.6005 12.6085 19.3588C11.8502 20.1171 10.8222 20.5437 9.74976 20.545Z" fill="#E85763"/>
<path d="M19.2103 6.75V9.315H17.1653V6.75H9.75029C8.20924 6.75172 6.69073 7.12021 5.32029 7.825L6.82029 9.325C7.7503 8.94473 8.74553 8.74942 9.75029 8.75H15.1653V11.31H21.2103V8.75H30.0003V11.38L17.3003 18.285L17.1803 18.685C16.8364 19.8588 16.2195 20.9344 15.3799 21.8238C14.5404 22.7133 13.5021 23.3913 12.3502 23.8022C11.1982 24.2132 9.96527 24.3455 8.75232 24.1884C7.53937 24.0312 6.3809 23.589 5.37174 22.8979C4.36258 22.2069 3.53143 21.2866 2.94634 20.2126C2.36124 19.1385 2.03885 17.9412 2.00554 16.7185C1.97223 15.4959 2.22895 14.2827 2.7547 13.1784C3.28044 12.0741 4.06025 11.11 5.03029 10.365C4.93529 10.27 1.60029 6.935 1.70529 7.045L0.295288 8.455L2.19029 10.355C1.02542 11.7836 0.289874 13.5135 0.0691237 15.3436C-0.151627 17.1737 0.151481 19.0288 0.943225 20.6935C1.73497 22.3581 2.98284 23.7639 4.54184 24.7475C6.10083 25.7311 7.90694 26.2521 9.75029 26.25C11.7864 26.2459 13.7707 25.6083 15.4282 24.4257C17.0856 23.243 18.334 21.574 19.0003 19.65L32.0003 12.57V6.75H19.2103Z" fill="#333333"/>
<path d="M9.75008 21.5449C10.7479 21.5449 11.7233 21.2491 12.5529 20.6947C13.3826 20.1404 14.0292 19.3524 14.4111 18.4306C14.7929 17.5087 14.8928 16.4944 14.6981 15.5157C14.5035 14.5371 14.023 13.6382 13.3174 12.9326C12.6119 12.227 11.7129 11.7466 10.7343 11.5519C9.75567 11.3572 8.74129 11.4571 7.81944 11.839C6.89759 12.2208 6.10967 12.8675 5.55531 13.6971C5.00096 14.5267 4.70508 15.5021 4.70508 16.5C4.70772 17.8372 5.24009 19.1188 6.18564 20.0644C7.13119 21.0099 8.41287 21.5423 9.75008 21.5449ZM9.75008 13.455C10.3523 13.455 10.941 13.6335 11.4418 13.9681C11.9425 14.3027 12.3328 14.7783 12.5633 15.3347C12.7938 15.8911 12.8541 16.5033 12.7366 17.094C12.6191 17.6847 12.3291 18.2272 11.9032 18.6531C11.4774 19.0789 10.9348 19.3689 10.3441 19.4864C9.75346 19.6039 9.14121 19.5436 8.58481 19.3132C8.02841 19.0827 7.55284 18.6924 7.21825 18.1917C6.88366 17.6909 6.70508 17.1022 6.70508 16.5C6.70508 15.6924 7.02589 14.9179 7.59694 14.3468C8.16799 13.7758 8.94249 13.455 9.75008 13.455Z" fill="#333333"/>
</g>
<defs>
<clipPath id="clip0">
<rect width="32" height="32" fill="white" transform="translate(0 0.5)"/>
</clipPath>
</defs>
</svg>
