<svg width="32" height="33" viewBox="0 0 32 33" fill="none" xmlns="http://www.w3.org/2000/svg">
<path d="M15.79 31.4841L20.0718 26.1305L17.9284 16.5H25.4205L27.5639 31.4841H15.79Z" fill="#E85763"/>
<path d="M15.7897 31.4841H4.01562L6.15923 16.5H13.6513L11.5077 26.1305L15.7897 31.4841Z" fill="#E85763"/>
<path d="M15.7892 13.2346C19.3058 13.2346 22.1565 10.3839 22.1565 6.86732C22.1565 3.3507 19.3058 0.5 15.7892 0.5C12.2726 0.5 9.42188 3.3507 9.42188 6.86732C9.42584 10.3822 12.2743 13.2307 15.7892 13.2346ZM15.7892 2.53175C18.1835 2.53175 20.1248 4.47297 20.1248 6.86732C20.1248 9.26191 18.1835 11.2029 15.7892 11.2029C13.3946 11.2029 11.4536 9.26191 11.4536 6.86732C11.4564 4.47396 13.3958 2.53448 15.7892 2.53175Z" fill="#333333"/>
<path d="M28.5692 31.342L28.4422 30.4683H17.9025L20.8638 26.7654C21.056 26.5258 21.129 26.2118 21.062 25.9122L19.1979 17.5159H24.5414L26.1007 28.4365H28.1528L26.4258 16.3579C26.3561 15.8562 25.9266 15.4831 25.4201 15.4841H6.1592C5.6525 15.4831 5.22319 15.8562 5.15349 16.3579L3.00989 31.342C2.96897 31.6332 3.05627 31.9278 3.24898 32.1501C3.44193 32.372 3.72145 32.4998 4.0156 32.5H27.5635C27.8576 32.4998 28.1371 32.372 28.3301 32.1498C28.5228 31.9278 28.6101 31.6332 28.5692 31.342ZM11.9293 19.5476L10.5171 25.9122C10.4501 26.2118 10.523 26.5258 10.7153 26.7654L13.6766 30.4683H5.18896L7.03792 17.5159H17.1153L18.9744 25.8765L15.7897 29.8589L12.6049 25.8765L14.0119 19.5476H11.9293Z" fill="#333333"/>
</svg>
