<svg width="32" height="33" viewBox="0 0 32 33" fill="none" xmlns="http://www.w3.org/2000/svg">
<path d="M23.5 9C23.5 4.85786 20.1421 1.5 16 1.5C11.8579 1.5 8.5 4.85786 8.5 9V13C8.5 17.1421 11.8579 20.5 16 20.5C20.1421 20.5 23.5 17.1421 23.5 13V9Z" fill="#E85763"/>
<path d="M21.655 19.325C22.5489 18.5314 23.2646 17.5574 23.755 16.4672C24.2454 15.3771 24.4993 14.1954 24.5 13V9C24.5 6.74566 23.6045 4.58365 22.0104 2.98959C20.4163 1.39553 18.2543 0.5 16 0.5C13.7457 0.5 11.5837 1.39553 9.98959 2.98959C8.39553 4.58365 7.5 6.74566 7.5 9V10H9.5V9C9.5 7.27609 10.1848 5.62279 11.4038 4.40381C12.6228 3.18482 14.2761 2.5 16 2.5C17.7239 2.5 19.3772 3.18482 20.5962 4.40381C21.8152 5.62279 22.5 7.27609 22.5 9V13C22.5 14.7239 21.8152 16.3772 20.5962 17.5962C19.3772 18.8152 17.7239 19.5 16 19.5C14.2761 19.5 12.6228 18.8152 11.4038 17.5962C10.1848 16.3772 9.5 14.7239 9.5 13V12H7.5V13C7.50224 14.1959 7.75681 15.3778 8.24705 16.4686C8.73729 17.5593 9.45218 18.5344 10.345 19.33L0 27V32.5H32V27L21.655 19.325ZM12.075 20.535C13.2862 21.1689 14.6329 21.5 16 21.5C17.3671 21.5 18.7138 21.1689 19.925 20.535L21.665 21.825C19.978 22.9185 18.0105 23.5004 16 23.5004C13.9895 23.5004 12.022 22.9185 10.335 21.825L12.075 20.535ZM30 30.5H2V28L8.635 23.08C10.7702 24.6486 13.3505 25.4945 16 25.4945C18.6495 25.4945 21.2298 24.6486 23.365 23.08L30 28V30.5Z" fill="#333333"/>
</svg>
